<svg width="42" height="42" viewBox="0 0 42 42" fill="none" xmlns="http://www.w3.org/2000/svg">
<path d="M32.1606 1.00995H9.23072C4.44144 1.00995 0.55896 4.89243 0.55896 9.68171V32.6115C0.55896 37.4008 4.44144 41.2833 9.23072 41.2833H32.1606C36.9498 41.2833 40.8323 37.4008 40.8323 32.6115V9.68171C40.8323 4.89243 36.9498 1.00995 32.1606 1.00995Z" fill="white" stroke="#C4CFE3" stroke-width="0.444706"/>
<path d="M10.5426 30.2255H14.3149V21.0642L8.9259 17.0224V28.6088C8.9259 29.5034 9.65068 30.2255 10.5426 30.2255Z" fill="#4285F4"/>
<path d="M27.2483 30.2255H31.0206C31.9152 30.2255 32.6373 29.5007 32.6373 28.6088V17.0224L27.2483 21.0642" fill="#34A853"/>
<path d="M27.2483 14.0585V21.0642L32.6373 17.0224V14.8669C32.6373 12.8675 30.3551 11.7277 28.7572 12.9268" fill="#FBBC04"/>
<path d="M14.3153 21.0641V14.0584L20.7821 18.9085L27.249 14.0584V21.0641L20.7821 25.9143" fill="#EA4335"/>
<path d="M8.9259 14.8669V17.0224L14.3149 21.0642V14.0585L12.806 12.9268C11.2054 11.7277 8.9259 12.8675 8.9259 14.8669Z" fill="#C5221F"/>
</svg>
