<svg width="41" height="44" viewBox="0 0 41 44" fill="none" xmlns="http://www.w3.org/2000/svg">
<path d="M22.4424 0.917402C21.1486 -0.305801 19.1248 -0.305801 17.831 0.917402L1.57563 16.2862C0.569868 17.2371 0 18.5602 0 19.9442V38.6353C0 41.4155 2.25387 43.6694 5.03417 43.6694H10.0683C12.8486 43.6694 15.1025 41.4155 15.1025 38.6353V30.245C15.1025 29.3183 15.8538 28.567 16.7806 28.567H23.4928C24.4196 28.567 25.1709 29.3183 25.1709 30.245V38.6353C25.1709 41.4155 27.4248 43.6694 30.205 43.6694H35.2392C38.0194 43.6694 40.2734 41.4155 40.2734 38.6353V19.9442C40.2734 18.5602 39.7035 17.2371 38.6977 16.2862L22.4424 0.917402Z" fill="#212121"/>
</svg>
