<svg width="41" height="41" viewBox="0 0 41 41" fill="none" xmlns="http://www.w3.org/2000/svg">
<path d="M0 40.4464L2.84576 30.0632C1.096 27.0251 0.163439 23.5737 0.173053 20.0453C0.173053 8.98915 9.17182 0 20.228 0C25.5926 0 30.6304 2.08625 34.4087 5.8742C38.1967 9.66214 40.2829 14.6999 40.2733 20.0549C40.2733 31.1111 31.2746 40.1003 20.2184 40.1003H20.2088C16.8535 40.1003 13.5558 39.2542 10.6235 37.6583L0 40.4464ZM11.1235 34.0242L11.7292 34.3895C14.2865 35.9085 17.2188 36.7065 20.2088 36.7161H20.2184C29.3998 36.7161 36.8796 29.246 36.8796 20.0549C36.8796 15.6036 35.149 11.4215 32.0052 8.2681C28.8614 5.11468 24.6697 3.38415 20.2184 3.38415C11.0273 3.38415 3.54759 10.8543 3.54759 20.0453C3.54759 23.1891 4.42247 26.256 6.09532 28.9095L6.4895 29.544L4.80703 35.6874L11.1235 34.0242Z" fill="black" fill-opacity="0.24"/>
<path d="M0.90979 39.3746L3.62528 29.4716C1.95421 26.5757 1.0712 23.2811 1.0712 19.9199C1.0712 9.3808 9.65443 0.807068 20.1841 0.807068C25.3017 0.807068 30.0966 2.80096 33.7046 6.40896C37.3126 10.017 39.297 14.8213 39.297 19.9294C39.297 30.4686 30.7137 39.0423 20.1841 39.0423H20.1746C16.9749 39.0423 13.8321 38.2353 11.0407 36.7161L0.90979 39.3746Z" fill="url(#paint0_linear_259_169)"/>
<path d="M0.216675 40.0677L3.02711 29.8134C1.29907 26.8131 0.378085 23.4045 0.38758 19.9199C0.38758 9.00098 9.27464 0.123413 20.1936 0.123413C25.4916 0.123413 30.4669 2.18377 34.1983 5.92469C37.9392 9.66561 39.9996 14.6408 39.9901 19.9294C39.9901 30.8483 31.103 39.7259 20.1841 39.7259H20.1746C16.8609 39.7259 13.6042 38.8904 10.7083 37.3142L0.216675 40.0677ZM11.2021 33.7252L11.8002 34.086C14.3258 35.5862 17.2217 36.3743 20.1746 36.3838H20.1841C29.2515 36.3838 36.6384 29.0064 36.6384 19.9294C36.6384 15.5334 34.9294 11.4031 31.8246 8.28888C28.7198 5.17461 24.5801 3.46556 20.1841 3.46556C11.1071 3.46556 3.72023 10.843 3.72023 19.9199C3.72023 23.0247 4.58425 26.0535 6.23633 28.674L6.62561 29.3007L4.96404 35.3678L11.2021 33.7252Z" fill="white"/>
<path d="M15.2373 11.631C14.867 10.805 14.4777 10.786 14.1264 10.7765C13.8416 10.767 13.5093 10.767 13.177 10.767C12.8446 10.767 12.3129 10.8905 11.8572 11.3842C11.4014 11.8779 10.1292 13.0742 10.1292 15.5144C10.1292 17.945 11.9047 20.2997 12.1515 20.632C12.3984 20.9644 15.5791 26.12 20.6018 28.1044C24.7795 29.7565 25.634 29.4242 26.536 29.3387C27.4475 29.2533 29.4604 28.1424 29.8782 26.984C30.2864 25.8257 30.2864 24.8382 30.163 24.6293C30.0396 24.4204 29.7073 24.297 29.2135 24.0501C28.7198 23.8033 26.2892 22.6069 25.8334 22.436C25.3777 22.2651 25.0454 22.1892 24.7225 22.6829C24.3902 23.1766 23.4408 24.2875 23.1559 24.6198C22.8711 24.9521 22.5767 24.9901 22.083 24.7433C21.5893 24.4964 19.9942 23.9742 18.1047 22.2841C16.633 20.9739 15.6361 19.3503 15.3512 18.8565C15.0664 18.3628 15.3228 18.097 15.5696 17.8501C15.788 17.6317 16.0634 17.2709 16.3102 16.9861C16.5571 16.7012 16.6425 16.4923 16.8039 16.16C16.9654 15.8277 16.8894 15.5429 16.766 15.296C16.6425 15.0491 15.6741 12.609 15.2373 11.631Z" fill="white"/>
<defs>
<linearGradient id="paint0_linear_259_169" x1="4914.32" y1="9911.97" x2="4914.32" y2="0.252912" gradientUnits="userSpaceOnUse">
<stop stop-color="#20B038"/>
<stop offset="1" stop-color="#60D66A"/>
</linearGradient>
</defs>
</svg>
